<?xml version="1.0" standalone="no"?>
<!DOCTYPE svg PUBLIC "-//W3C//DTD SVG 20010904//EN"
 "http://www.w3.org/TR/2001/REC-SVG-20010904/DTD/svg10.dtd">
<svg version="1.0" xmlns="http://www.w3.org/2000/svg"
 width="840.000000pt" height="487.000000pt" viewBox="0 0 840.000000 487.000000"
 preserveAspectRatio="xMidYMid meet">

<g transform="translate(0.000000,487.000000) scale(0.100000,-0.100000)"
fill="#000000" stroke="none">
<path d="M1695 4447 c-69 -23 -100 -44 -156 -105 -64 -69 -89 -133 -89 -228 0
-130 -24 -99 689 -902 483 -545 650 -740 655 -763 4 -22 1 -43 -11 -65 -10
-18 -301 -351 -647 -741 -694 -782 -686 -771 -686 -895 0 -95 30 -169 97 -239
75 -79 132 -102 249 -103 165 -2 94 -69 996 944 569 639 796 900 816 940 23
48 27 67 27 145 0 82 -3 95 -30 142 -16 29 -384 450 -818 937 -887 996 -824
936 -976 943 -45 2 -92 -3 -116 -10z"/>
</g>
</svg>
